<?xml version="1.0" encoding="UTF-8"?>
<svg data-logo="logo" viewBox="0 0 153.62 41.79" xmlns="http://www.w3.org/2000/svg">
 <g id="logogram" transform="translate(0 .895) rotate(0 17 20)" fill="#CC785C">
  <path d="m19.261 5.8219v-5.8219h-18.356v40h18.356v-5.8219c-3.7602 0-7.3665-1.4939-10.025-4.1528-2.6589-2.6589-4.1527-6.265-4.1527-10.025s1.4938-7.3666 4.1527-10.025c2.6589-2.6589 6.2652-4.1527 10.025-4.1527z"/>
  <path d="m19.261 5.8219v28.356c3.7603 0 7.3666-1.4939 10.026-4.1528s4.1526-6.265 4.1526-10.025-1.4937-7.3666-4.1526-10.025c-2.6589-2.6589-6.2652-4.1527-10.026-4.1527z"/>
 </g>
 <g id="logotype" transform="translate(40 .5)">
  <path d="m13.42 34.42q-2.48 0-4.57-0.93-2.08-0.93-3.41-2.64l3.15-3.78q1.02 1.33 2.14 2.01 1.12 0.69 2.41 0.69 3.47 0 3.47-4.07v-11.65h-8.61v-4.55h14.24v15.89q0 4.55-2.24 6.79t-6.58 2.24zm29.93-0.42h-5.11v-3.68l-0.35-0.8v-6.58q0-1.75-1.07-2.73t-3.27-0.98q-1.51 0-2.96 0.47t-2.47 1.28l-1.96-3.82q1.54-1.08 3.71-1.68 2.17-0.59 4.41-0.59 4.31 0 6.69 2.03t2.38 6.33v10.75zm-10.85 0.28q-2.21 0-3.78-0.75-1.58-0.76-2.42-2.05-0.84-1.3-0.84-2.91 0-1.68 0.82-2.94 0.83-1.25 2.61-1.97 1.79-0.72 4.66-0.72h5v3.19h-4.41q-1.92 0-2.64 0.62-0.72 0.63-0.72 1.58 0 1.05 0.82 1.66 0.83 0.62 2.26 0.62 1.37 0 2.45-0.65 1.09-0.65 1.58-1.91l0.84 2.52q-0.6 1.82-2.17 2.77-1.58 0.94-4.06 0.94zm21.34 0q-2.41 0-4.63-0.58-2.23-0.57-3.52-1.45l1.82-3.92q1.29 0.8 3.06 1.31t3.49 0.51q1.89 0 2.67-0.45 0.79-0.46 0.79-1.27 0-0.66-0.61-0.99t-1.63-0.51q-1.01-0.18-2.22-0.35t-2.43-0.47q-1.23-0.3-2.24-0.9-1.02-0.59-1.63-1.61-0.61-1.01-0.61-2.62 0-1.78 1.03-3.15t2.99-2.15q1.96-0.79 4.69-0.79 1.93 0 3.92 0.42 2 0.42 3.33 1.22l-1.82 3.89q-1.37-0.81-2.75-1.1-1.38-0.3-2.68-0.3-1.82 0-2.66 0.49t-0.84 1.26q0 0.7 0.61 1.05 0.62 0.35 1.63 0.56 1.02 0.21 2.22 0.37 1.21 0.16 2.44 0.47 1.22 0.31 2.22 0.89t1.63 1.58q0.62 0.99 0.62 2.6 0 1.75-1.04 3.1-1.05 1.35-3.03 2.12t-4.82 0.77zm19.19 0q-3.33 0-5.19-1.7-1.85-1.7-1.85-5.06v-16.52h5.46v16.45q0 1.19 0.63 1.84t1.72 0.65q1.29 0 2.2-0.7l1.47 3.85q-0.84 0.6-2.01 0.89-1.18 0.3-2.43 0.3zm3.11-14.91h-13.05v-4.2h13.05v4.2zm9.1 14.63h-5.46v-18.83h5.46v18.83zm-2.73-21.46q-1.5 0-2.45-0.87-0.94-0.88-0.94-2.17 0-1.3 0.94-2.17 0.95-0.88 2.45-0.88 1.51 0 2.45 0.83 0.95 0.82 0.95 2.11 0 1.37-0.93 2.26t-2.47 0.89zm18.17 21.74q-2.38 0-4.17-1.05-1.78-1.05-2.78-3.2t-1-5.44q0-3.33 0.95-5.46 0.94-2.14 2.73-3.19 1.78-1.05 4.27-1.05 2.66 0 4.77 1.21 2.12 1.2 3.36 3.37 1.25 2.17 1.25 5.12 0 2.97-1.25 5.14-1.24 2.17-3.36 3.36-2.11 1.19-4.77 1.19zm-5.67 6.51h-5.46v-25.62h5.21v3.85l-0.1 5.6 0.35 5.56v10.61zm4.72-10.99q1.37 0 2.43-0.63 1.07-0.63 1.72-1.8t0.65-2.78q0-1.65-0.65-2.81-0.65-1.15-1.72-1.78-1.06-0.63-2.43-0.63-1.36 0-2.45 0.63-1.08 0.63-1.71 1.78-0.63 1.16-0.63 2.81 0 1.61 0.63 2.78t1.71 1.8q1.09 0.63 2.45 0.63z" fill="#fff"/>
 </g>
</svg>
